<?xml version="1.0" encoding="UTF-8" standalone="no"?>
<!DOCTYPE svg PUBLIC "-//W3C//DTD SVG 1.1//EN"
 "http://www.w3.org/Graphics/SVG/1.1/DTD/svg11.dtd">
<!-- Generated by graphviz version 2.38.0 (20140413.2041)
 -->
<!-- Title: controllers_diagram Pages: 1 -->
<svg width="814pt" height="753pt"
 viewBox="0.00 0.00 813.78 753.00" xmlns="http://www.w3.org/2000/svg" xmlns:xlink="http://www.w3.org/1999/xlink">
<g id="graph0" class="graph" transform="scale(1 1) rotate(0) translate(304.021 429.5)">
<title>controllers_diagram</title>
<polygon fill="none" stroke="none" points="-304.021,323.5 -304.021,-429.5 509.759,-429.5 509.759,323.5 -304.021,323.5"/>
<!-- _diagram_info -->
<g id="node1" class="node"><title>_diagram_info</title>
<text text-anchor="start" x="-251.688" y="200.9" font-family="Times,serif" font-size="13.00">Controllers diagram</text>
<text text-anchor="start" x="-251.688" y="213.9" font-family="Times,serif" font-size="13.00">Date: May 03 2016 &#45; 22:58</text>
<text text-anchor="start" x="-251.688" y="226.9" font-family="Times,serif" font-size="13.00">Migration version: 20160420034422</text>
<text text-anchor="start" x="-251.688" y="239.9" font-family="Times,serif" font-size="13.00">Generated by RailRoady 1.4.2</text>
<text text-anchor="start" x="-251.688" y="252.9" font-family="Times,serif" font-size="13.00">http://railroady.prestonlee.com</text>
</g>
<!-- AccessController -->
<g id="node2" class="node"><title>AccessController</title>
<path fill="none" stroke="black" d="M-88.4761,-141C-88.4761,-141 78.4761,-141 78.4761,-141 84.4761,-141 90.4761,-147 90.4761,-153 90.4761,-153 90.4761,-317 90.4761,-317 90.4761,-323 84.4761,-329 78.4761,-329 78.4761,-329 -88.4761,-329 -88.4761,-329 -94.4761,-329 -100.476,-323 -100.476,-317 -100.476,-317 -100.476,-153 -100.476,-153 -100.476,-147 -94.4761,-141 -88.4761,-141"/>
<text text-anchor="middle" x="-5" y="-313.8" font-family="Times,serif" font-size="14.00">AccessController</text>
<polyline fill="none" stroke="black" points="-100.476,-307 90.4761,-307 "/>
<text text-anchor="start" x="-92.4761" y="-291.8" font-family="Times,serif" font-size="14.00">admin_edit</text>
<text text-anchor="start" x="-92.4761" y="-277.8" font-family="Times,serif" font-size="14.00">associate</text>
<text text-anchor="start" x="-92.4761" y="-263.8" font-family="Times,serif" font-size="14.00">cooperator_edit</text>
<text text-anchor="start" x="-92.4761" y="-249.8" font-family="Times,serif" font-size="14.00">disassociate</text>
<text text-anchor="start" x="-92.4761" y="-235.8" font-family="Times,serif" font-size="14.00">update</text>
<polyline fill="none" stroke="black" points="-100.476,-229 90.4761,-229 "/>
<polyline fill="none" stroke="black" points="-100.476,-205 90.4761,-205 "/>
<text text-anchor="start" x="-92.4761" y="-189.8" font-family="Times,serif" font-size="14.00">_layout</text>
<text text-anchor="start" x="-92.4761" y="-175.8" font-family="Times,serif" font-size="14.00">access_params</text>
<text text-anchor="start" x="-92.4761" y="-161.8" font-family="Times,serif" font-size="14.00">login_as_admin_or_cooperator</text>
<text text-anchor="start" x="-92.4761" y="-147.8" font-family="Times,serif" font-size="14.00">set_access</text>
</g>
<!-- AccountActivationsController -->
<g id="node3" class="node"><title>AccountActivationsController</title>
<path fill="none" stroke="black" d="M332.241,119C332.241,119 493.759,119 493.759,119 499.759,119 505.759,113 505.759,107 505.759,107 505.759,41 505.759,41 505.759,35 499.759,29 493.759,29 493.759,29 332.241,29 332.241,29 326.241,29 320.241,35 320.241,41 320.241,41 320.241,107 320.241,107 320.241,113 326.241,119 332.241,119"/>
<text text-anchor="middle" x="413" y="44.2" font-family="Times,serif" font-size="14.00">AccountActivationsController</text>
<polyline fill="none" stroke="black" points="320.241,51 505.759,51 "/>
<text text-anchor="start" x="328.241" y="66.2" font-family="Times,serif" font-size="14.00">edit</text>
<polyline fill="none" stroke="black" points="320.241,73 505.759,73 "/>
<polyline fill="none" stroke="black" points="320.241,97 505.759,97 "/>
<text text-anchor="start" x="328.241" y="112.2" font-family="Times,serif" font-size="14.00">_layout</text>
</g>
<!-- ApplicationController -->
<g id="node4" class="node"><title>ApplicationController</title>
<path fill="none" stroke="black" d="M-288.021,-301C-288.021,-301 -159.979,-301 -159.979,-301 -153.979,-301 -147.979,-307 -147.979,-313 -147.979,-313 -147.979,-393 -147.979,-393 -147.979,-399 -153.979,-405 -159.979,-405 -159.979,-405 -288.021,-405 -288.021,-405 -294.021,-405 -300.021,-399 -300.021,-393 -300.021,-393 -300.021,-313 -300.021,-313 -300.021,-307 -294.021,-301 -288.021,-301"/>
<text text-anchor="middle" x="-224" y="-389.8" font-family="Times,serif" font-size="14.00">ApplicationController</text>
<polyline fill="none" stroke="black" points="-300.021,-383 -147.979,-383 "/>
<text text-anchor="start" x="-292.021" y="-367.8" font-family="Times,serif" font-size="14.00">me</text>
<polyline fill="none" stroke="black" points="-300.021,-361 -147.979,-361 "/>
<polyline fill="none" stroke="black" points="-300.021,-337 -147.979,-337 "/>
<text text-anchor="start" x="-292.021" y="-321.8" font-family="Times,serif" font-size="14.00">_layout</text>
<text text-anchor="start" x="-292.021" y="-307.8" font-family="Times,serif" font-size="14.00">current_resource_owner</text>
</g>
<!-- CooperatorsController -->
<g id="node5" class="node"><title>CooperatorsController</title>
<path fill="none" stroke="black" d="M192.014,-181C192.014,-181 309.986,-181 309.986,-181 315.986,-181 321.986,-187 321.986,-193 321.986,-193 321.986,-413 321.986,-413 321.986,-419 315.986,-425 309.986,-425 309.986,-425 192.014,-425 192.014,-425 186.014,-425 180.014,-419 180.014,-413 180.014,-413 180.014,-193 180.014,-193 180.014,-187 186.014,-181 192.014,-181"/>
<text text-anchor="middle" x="251" y="-409.8" font-family="Times,serif" font-size="14.00">CooperatorsController</text>
<polyline fill="none" stroke="black" points="180.014,-403 321.986,-403 "/>
<text text-anchor="start" x="188.014" y="-387.8" font-family="Times,serif" font-size="14.00">applications</text>
<text text-anchor="start" x="188.014" y="-373.8" font-family="Times,serif" font-size="14.00">create</text>
<text text-anchor="start" x="188.014" y="-359.8" font-family="Times,serif" font-size="14.00">destroy</text>
<text text-anchor="start" x="188.014" y="-345.8" font-family="Times,serif" font-size="14.00">edit</text>
<text text-anchor="start" x="188.014" y="-331.8" font-family="Times,serif" font-size="14.00">new</text>
<text text-anchor="start" x="188.014" y="-317.8" font-family="Times,serif" font-size="14.00">show</text>
<text text-anchor="start" x="188.014" y="-303.8" font-family="Times,serif" font-size="14.00">update</text>
<polyline fill="none" stroke="black" points="180.014,-297 321.986,-297 "/>
<polyline fill="none" stroke="black" points="180.014,-273 321.986,-273 "/>
<text text-anchor="start" x="188.014" y="-257.8" font-family="Times,serif" font-size="14.00">_layout</text>
<text text-anchor="start" x="188.014" y="-243.8" font-family="Times,serif" font-size="14.00">cooperator_params</text>
<text text-anchor="start" x="188.014" y="-229.8" font-family="Times,serif" font-size="14.00">correct_cooperator</text>
<text text-anchor="start" x="188.014" y="-215.8" font-family="Times,serif" font-size="14.00">logged_in_cooperator</text>
<text text-anchor="start" x="188.014" y="-201.8" font-family="Times,serif" font-size="14.00">none_admin</text>
<text text-anchor="start" x="188.014" y="-187.8" font-family="Times,serif" font-size="14.00">set_cooperator</text>
</g>
<!-- HomeController -->
<g id="node6" class="node"><title>HomeController</title>
<path fill="none" stroke="black" d="M-227.879,139C-227.879,139 -144.121,139 -144.121,139 -138.121,139 -132.121,133 -132.121,127 -132.121,127 -132.121,47 -132.121,47 -132.121,41 -138.121,35 -144.121,35 -144.121,35 -227.879,35 -227.879,35 -233.879,35 -239.879,41 -239.879,47 -239.879,47 -239.879,127 -239.879,127 -239.879,133 -233.879,139 -227.879,139"/>
<text text-anchor="middle" x="-186" y="50.2" font-family="Times,serif" font-size="14.00">HomeController</text>
<polyline fill="none" stroke="black" points="-239.879,57 -132.121,57 "/>
<text text-anchor="start" x="-231.879" y="72.2" font-family="Times,serif" font-size="14.00">gate</text>
<text text-anchor="start" x="-231.879" y="86.2" font-family="Times,serif" font-size="14.00">index</text>
<polyline fill="none" stroke="black" points="-239.879,93 -132.121,93 "/>
<polyline fill="none" stroke="black" points="-239.879,117 -132.121,117 "/>
<text text-anchor="start" x="-231.879" y="132.2" font-family="Times,serif" font-size="14.00">_layout</text>
</g>
<!-- Oauth::ApplicationsController -->
<g id="node7" class="node"><title>Oauth::ApplicationsController</title>
<path fill="none" stroke="black" d="M-87.5415,139C-87.5415,139 75.5415,139 75.5415,139 81.5415,139 87.5415,133 87.5415,127 87.5415,127 87.5415,-93 87.5415,-93 87.5415,-99 81.5415,-105 75.5415,-105 75.5415,-105 -87.5415,-105 -87.5415,-105 -93.5415,-105 -99.5415,-99 -99.5415,-93 -99.5415,-93 -99.5415,127 -99.5415,127 -99.5415,133 -93.5415,139 -87.5415,139"/>
<text text-anchor="middle" x="-6" y="-89.8" font-family="Times,serif" font-size="14.00">Oauth::ApplicationsController</text>
<polyline fill="none" stroke="black" points="-99.5415,-83 87.5415,-83 "/>
<text text-anchor="start" x="-91.5415" y="-67.8" font-family="Times,serif" font-size="14.00">add_users</text>
<text text-anchor="start" x="-91.5415" y="-53.8" font-family="Times,serif" font-size="14.00">create</text>
<text text-anchor="start" x="-91.5415" y="-39.8" font-family="Times,serif" font-size="14.00">destroy</text>
<text text-anchor="start" x="-91.5415" y="-25.8" font-family="Times,serif" font-size="14.00">edit</text>
<text text-anchor="start" x="-91.5415" y="-11.8" font-family="Times,serif" font-size="14.00">list_users</text>
<text text-anchor="start" x="-91.5415" y="2.2" font-family="Times,serif" font-size="14.00">new</text>
<text text-anchor="start" x="-91.5415" y="16.2" font-family="Times,serif" font-size="14.00">show</text>
<text text-anchor="start" x="-91.5415" y="30.2" font-family="Times,serif" font-size="14.00">update</text>
<polyline fill="none" stroke="black" points="-99.5415,37 87.5415,37 "/>
<polyline fill="none" stroke="black" points="-99.5415,61 87.5415,61 "/>
<text text-anchor="start" x="-91.5415" y="76.2" font-family="Times,serif" font-size="14.00">_layout</text>
<text text-anchor="start" x="-91.5415" y="90.2" font-family="Times,serif" font-size="14.00">application_params</text>
<text text-anchor="start" x="-91.5415" y="104.2" font-family="Times,serif" font-size="14.00">authenticate_cooperator!</text>
<text text-anchor="start" x="-91.5415" y="118.2" font-family="Times,serif" font-size="14.00">none_admin</text>
<text text-anchor="start" x="-91.5415" y="132.2" font-family="Times,serif" font-size="14.00">set_application</text>
</g>
<!-- PasswordResetsController -->
<g id="node8" class="node"><title>PasswordResetsController</title>
<path fill="none" stroke="black" d="M-287.883,-1C-287.883,-1 -148.117,-1 -148.117,-1 -142.117,-1 -136.117,-7 -136.117,-13 -136.117,-13 -136.117,-177 -136.117,-177 -136.117,-183 -142.117,-189 -148.117,-189 -148.117,-189 -287.883,-189 -287.883,-189 -293.883,-189 -299.883,-183 -299.883,-177 -299.883,-177 -299.883,-13 -299.883,-13 -299.883,-7 -293.883,-1 -287.883,-1"/>
<text text-anchor="middle" x="-218" y="-173.8" font-family="Times,serif" font-size="14.00">PasswordResetsController</text>
<polyline fill="none" stroke="black" points="-299.883,-167 -136.117,-167 "/>
<text text-anchor="start" x="-291.883" y="-151.8" font-family="Times,serif" font-size="14.00">create</text>
<text text-anchor="start" x="-291.883" y="-137.8" font-family="Times,serif" font-size="14.00">edit</text>
<text text-anchor="start" x="-291.883" y="-123.8" font-family="Times,serif" font-size="14.00">new</text>
<text text-anchor="start" x="-291.883" y="-109.8" font-family="Times,serif" font-size="14.00">update</text>
<polyline fill="none" stroke="black" points="-299.883,-103 -136.117,-103 "/>
<polyline fill="none" stroke="black" points="-299.883,-79 -136.117,-79 "/>
<text text-anchor="start" x="-291.883" y="-63.8" font-family="Times,serif" font-size="14.00">_layout</text>
<text text-anchor="start" x="-291.883" y="-49.8" font-family="Times,serif" font-size="14.00">check_expiration</text>
<text text-anchor="start" x="-291.883" y="-35.8" font-family="Times,serif" font-size="14.00">get_user</text>
<text text-anchor="start" x="-291.883" y="-21.8" font-family="Times,serif" font-size="14.00">user_params</text>
<text text-anchor="start" x="-291.883" y="-7.8" font-family="Times,serif" font-size="14.00">valid_user</text>
</g>
<!-- Session::SessionsController -->
<g id="node9" class="node"><title>Session::SessionsController</title>
<path fill="none" stroke="black" d="M131.828,319C131.828,319 280.172,319 280.172,319 286.172,319 292.172,313 292.172,307 292.172,307 292.172,171 292.172,171 292.172,165 286.172,159 280.172,159 280.172,159 131.828,159 131.828,159 125.828,159 119.828,165 119.828,171 119.828,171 119.828,307 119.828,307 119.828,313 125.828,319 131.828,319"/>
<text text-anchor="middle" x="206" y="174.2" font-family="Times,serif" font-size="14.00">Session::SessionsController</text>
<polyline fill="none" stroke="black" points="119.828,181 292.172,181 "/>
<text text-anchor="start" x="127.828" y="196.2" font-family="Times,serif" font-size="14.00">create_admin</text>
<text text-anchor="start" x="127.828" y="210.2" font-family="Times,serif" font-size="14.00">create_cooperator</text>
<text text-anchor="start" x="127.828" y="224.2" font-family="Times,serif" font-size="14.00">create_user</text>
<text text-anchor="start" x="127.828" y="238.2" font-family="Times,serif" font-size="14.00">destroy_admin</text>
<text text-anchor="start" x="127.828" y="252.2" font-family="Times,serif" font-size="14.00">destroy_cooperator</text>
<text text-anchor="start" x="127.828" y="266.2" font-family="Times,serif" font-size="14.00">destroy_user</text>
<polyline fill="none" stroke="black" points="119.828,273 292.172,273 "/>
<polyline fill="none" stroke="black" points="119.828,297 292.172,297 "/>
<text text-anchor="start" x="127.828" y="312.2" font-family="Times,serif" font-size="14.00">_layout</text>
</g>
<!-- UsersController -->
<g id="node10" class="node"><title>UsersController</title>
<path fill="none" stroke="black" d="M131.638,119C131.638,119 278.362,119 278.362,119 284.362,119 290.362,113 290.362,107 290.362,107 290.362,-127 290.362,-127 290.362,-133 284.362,-139 278.362,-139 278.362,-139 131.638,-139 131.638,-139 125.638,-139 119.638,-133 119.638,-127 119.638,-127 119.638,107 119.638,107 119.638,113 125.638,119 131.638,119"/>
<text text-anchor="middle" x="205" y="-123.8" font-family="Times,serif" font-size="14.00">UsersController</text>
<polyline fill="none" stroke="black" points="119.638,-117 290.362,-117 "/>
<text text-anchor="start" x="127.638" y="-101.8" font-family="Times,serif" font-size="14.00">applications</text>
<text text-anchor="start" x="127.638" y="-87.8" font-family="Times,serif" font-size="14.00">create</text>
<text text-anchor="start" x="127.638" y="-73.8" font-family="Times,serif" font-size="14.00">destroy</text>
<text text-anchor="start" x="127.638" y="-59.8" font-family="Times,serif" font-size="14.00">edit</text>
<text text-anchor="start" x="127.638" y="-45.8" font-family="Times,serif" font-size="14.00">new</text>
<text text-anchor="start" x="127.638" y="-31.8" font-family="Times,serif" font-size="14.00">show</text>
<text text-anchor="start" x="127.638" y="-17.8" font-family="Times,serif" font-size="14.00">update</text>
<polyline fill="none" stroke="black" points="119.638,-11 290.362,-11 "/>
<polyline fill="none" stroke="black" points="119.638,13 290.362,13 "/>
<text text-anchor="start" x="127.638" y="28.2" font-family="Times,serif" font-size="14.00">_layout</text>
<text text-anchor="start" x="127.638" y="42.2" font-family="Times,serif" font-size="14.00">cooperator_exist</text>
<text text-anchor="start" x="127.638" y="56.2" font-family="Times,serif" font-size="14.00">correct_user</text>
<text text-anchor="start" x="127.638" y="70.2" font-family="Times,serif" font-size="14.00">logged_in_user</text>
<text text-anchor="start" x="127.638" y="84.2" font-family="Times,serif" font-size="14.00">none_cooperator_or_admin</text>
<text text-anchor="start" x="127.638" y="98.2" font-family="Times,serif" font-size="14.00">set_user</text>
<text text-anchor="start" x="127.638" y="112.2" font-family="Times,serif" font-size="14.00">user_params</text>
</g>
</g>
</svg>
