<?xml version="1.0" encoding="UTF-8" standalone="no"?>
<!DOCTYPE svg PUBLIC "-//W3C//DTD SVG 1.1//EN"
 "http://www.w3.org/Graphics/SVG/1.1/DTD/svg11.dtd">
<!-- Generated by graphviz version 2.38.0 (20140413.2041)
 -->
<!-- Title: models_diagram Pages: 1 -->
<svg width="921pt" height="679pt"
 viewBox="0.00 0.00 921.35 679.00" xmlns="http://www.w3.org/2000/svg" xmlns:xlink="http://www.w3.org/1999/xlink">
<g id="graph0" class="graph" transform="scale(1 1) rotate(0) translate(4 675)">
<title>models_diagram</title>
<polygon fill="none" stroke="none" points="-4,4 -4,-675 917.35,-675 917.35,4 -4,4"/>
<!-- _diagram_info -->
<g id="node1" class="node"><title>_diagram_info</title>
<text text-anchor="start" x="8" y="-565.6" font-family="Times,serif" font-size="13.00">Models diagram</text>
<text text-anchor="start" x="8" y="-552.6" font-family="Times,serif" font-size="13.00">Date: May 04 2016 &#45; 15:33</text>
<text text-anchor="start" x="8" y="-539.6" font-family="Times,serif" font-size="13.00">Migration version: 20160420034422</text>
<text text-anchor="start" x="8" y="-526.6" font-family="Times,serif" font-size="13.00">Generated by RailRoady 1.4.2</text>
<text text-anchor="start" x="8" y="-513.6" font-family="Times,serif" font-size="13.00">http://railroady.prestonlee.com</text>
</g>
<!-- Access -->
<g id="node2" class="node"><title>Access</title>
<path fill="none" stroke="black" d="M697.182,-86.5C697.182,-86.5 806.193,-86.5 806.193,-86.5 812.193,-86.5 818.193,-92.5 818.193,-98.5 818.193,-98.5 818.193,-202.5 818.193,-202.5 818.193,-208.5 812.193,-214.5 806.193,-214.5 806.193,-214.5 697.182,-214.5 697.182,-214.5 691.182,-214.5 685.182,-208.5 685.182,-202.5 685.182,-202.5 685.182,-98.5 685.182,-98.5 685.182,-92.5 691.182,-86.5 697.182,-86.5"/>
<text text-anchor="middle" x="751.688" y="-199.3" font-family="Times,serif" font-size="14.00">Access</text>
<polyline fill="none" stroke="black" points="685.182,-192.5 818.193,-192.5 "/>
<text text-anchor="start" x="693.182" y="-177.3" font-family="Times,serif" font-size="14.00">id :INTEGER</text>
<text text-anchor="start" x="693.182" y="-163.3" font-family="Times,serif" font-size="14.00">node :text</text>
<text text-anchor="start" x="693.182" y="-149.3" font-family="Times,serif" font-size="14.00">path :text</text>
<text text-anchor="start" x="693.182" y="-135.3" font-family="Times,serif" font-size="14.00">app_id :integer</text>
<text text-anchor="start" x="693.182" y="-121.3" font-family="Times,serif" font-size="14.00">resource_id :integer</text>
<text text-anchor="start" x="693.182" y="-107.3" font-family="Times,serif" font-size="14.00">created_at :datetime</text>
<text text-anchor="start" x="693.182" y="-93.3" font-family="Times,serif" font-size="14.00">updated_at :datetime</text>
</g>
<!-- PaperTrail::Version -->
<g id="node8" class="node"><title>PaperTrail::Version</title>
<ellipse fill="none" stroke="black" cx="751.688" cy="-18" rx="79.1078" ry="18"/>
<text text-anchor="middle" x="751.688" y="-13.8" font-family="Times,serif" font-size="14.00">PaperTrail::Version</text>
</g>
<!-- Access&#45;&gt;PaperTrail::Version -->
<g id="edge1" class="edge"><title>Access&#45;&gt;PaperTrail::Version</title>
<path fill="none" stroke="#dfcf3f" d="M751.688,-77.9543C751.688,-66.7085 751.688,-55.7146 751.688,-46.3253"/>
<ellipse fill="none" stroke="#dfcf3f" cx="751.688" cy="-82.1614" rx="4" ry="4"/>
<polygon fill="#dfcf3f" stroke="#dfcf3f" points="751.688,-46.1214 756.188,-36.1213 751.688,-41.1214 751.688,-36.1214 751.688,-36.1214 751.688,-36.1214 751.688,-41.1214 747.188,-36.1214 751.688,-46.1214 751.688,-46.1214"/>
<text text-anchor="middle" x="775.019" y="-56.8" font-family="Times,serif" font-size="14.00">versions</text>
</g>
<!-- Admin -->
<g id="node3" class="node"><title>Admin</title>
<path fill="none" stroke="black" d="M752.417,-479.5C752.417,-479.5 890.959,-479.5 890.959,-479.5 896.959,-479.5 902.959,-485.5 902.959,-491.5 902.959,-491.5 902.959,-595.5 902.959,-595.5 902.959,-601.5 896.959,-607.5 890.959,-607.5 890.959,-607.5 752.417,-607.5 752.417,-607.5 746.417,-607.5 740.417,-601.5 740.417,-595.5 740.417,-595.5 740.417,-491.5 740.417,-491.5 740.417,-485.5 746.417,-479.5 752.417,-479.5"/>
<text text-anchor="middle" x="821.688" y="-592.3" font-family="Times,serif" font-size="14.00">Admin</text>
<polyline fill="none" stroke="black" points="740.417,-585.5 902.959,-585.5 "/>
<text text-anchor="start" x="748.417" y="-570.3" font-family="Times,serif" font-size="14.00">id :INTEGER</text>
<text text-anchor="start" x="748.417" y="-556.3" font-family="Times,serif" font-size="14.00">name :varchar</text>
<text text-anchor="start" x="748.417" y="-542.3" font-family="Times,serif" font-size="14.00">email :varchar</text>
<text text-anchor="start" x="748.417" y="-528.3" font-family="Times,serif" font-size="14.00">password_digest :varchar</text>
<text text-anchor="start" x="748.417" y="-514.3" font-family="Times,serif" font-size="14.00">remember_digest :varchar</text>
<text text-anchor="start" x="748.417" y="-500.3" font-family="Times,serif" font-size="14.00">created_at :datetime</text>
<text text-anchor="start" x="748.417" y="-486.3" font-family="Times,serif" font-size="14.00">updated_at :datetime</text>
</g>
<!-- Cooperator -->
<g id="node4" class="node"><title>Cooperator</title>
<path fill="none" stroke="black" d="M237.417,-465.5C237.417,-465.5 375.959,-465.5 375.959,-465.5 381.959,-465.5 387.959,-471.5 387.959,-477.5 387.959,-477.5 387.959,-609.5 387.959,-609.5 387.959,-615.5 381.959,-621.5 375.959,-621.5 375.959,-621.5 237.417,-621.5 237.417,-621.5 231.417,-621.5 225.417,-615.5 225.417,-609.5 225.417,-609.5 225.417,-477.5 225.417,-477.5 225.417,-471.5 231.417,-465.5 237.417,-465.5"/>
<text text-anchor="middle" x="306.688" y="-606.3" font-family="Times,serif" font-size="14.00">Cooperator</text>
<polyline fill="none" stroke="black" points="225.417,-599.5 387.959,-599.5 "/>
<text text-anchor="start" x="233.417" y="-584.3" font-family="Times,serif" font-size="14.00">id :INTEGER</text>
<text text-anchor="start" x="233.417" y="-570.3" font-family="Times,serif" font-size="14.00">name :varchar</text>
<text text-anchor="start" x="233.417" y="-556.3" font-family="Times,serif" font-size="14.00">email :varchar</text>
<text text-anchor="start" x="233.417" y="-542.3" font-family="Times,serif" font-size="14.00">belongings :varchar</text>
<text text-anchor="start" x="233.417" y="-528.3" font-family="Times,serif" font-size="14.00">password_digest :varchar</text>
<text text-anchor="start" x="233.417" y="-514.3" font-family="Times,serif" font-size="14.00">remember_digest :varchar</text>
<text text-anchor="start" x="233.417" y="-500.3" font-family="Times,serif" font-size="14.00">created_at :datetime</text>
<text text-anchor="start" x="233.417" y="-486.3" font-family="Times,serif" font-size="14.00">updated_at :datetime</text>
<text text-anchor="start" x="233.417" y="-472.3" font-family="Times,serif" font-size="14.00">icon :varchar</text>
</g>
<!-- Cooperator&#45;&gt;PaperTrail::Version -->
<g id="edge3" class="edge"><title>Cooperator&#45;&gt;PaperTrail::Version</title>
<path fill="none" stroke="#5d32d9" d="M282.124,-457.332C270.451,-399.145 265.534,-322.473 299.688,-265 383.696,-123.634 580.564,-58.3802 684.572,-32.8698"/>
<ellipse fill="none" stroke="#5d32d9" cx="282.995" cy="-461.5" rx="4.00001" ry="4.00001"/>
<polygon fill="#5d32d9" stroke="#5d32d9" points="684.617,-32.8591 695.392,-34.8995 689.479,-31.6915 694.341,-30.5239 694.341,-30.5239 694.341,-30.5239 689.479,-31.6915 693.29,-26.1483 684.617,-32.8591 684.617,-32.8591"/>
<text text-anchor="middle" x="344.019" y="-235.8" font-family="Times,serif" font-size="14.00">versions</text>
</g>
<!-- Doorkeeper::Application -->
<g id="node9" class="node"><title>Doorkeeper::Application</title>
<ellipse fill="none" stroke="black" cx="407.688" cy="-315.5" rx="98.5225" ry="18"/>
<text text-anchor="middle" x="407.688" y="-311.3" font-family="Times,serif" font-size="14.00">Doorkeeper::Application</text>
</g>
<!-- Cooperator&#45;&gt;Doorkeeper::Application -->
<g id="edge2" class="edge"><title>Cooperator&#45;&gt;Doorkeeper::Application</title>
<path fill="none" stroke="#b15e98" d="M336.603,-457.488C345.868,-433.39 356.635,-407.365 367.936,-384 374.778,-369.853 383.542,-354.726 391.099,-342.385"/>
<ellipse fill="none" stroke="#b15e98" cx="335.073" cy="-461.5" rx="4.00001" ry="4.00001"/>
<polygon fill="#b15e98" stroke="#b15e98" points="391.31,-342.045 400.412,-335.93 393.95,-337.799 396.591,-333.553 396.591,-333.553 396.591,-333.553 393.95,-337.799 392.769,-331.177 391.31,-342.045 391.31,-342.045"/>
<text text-anchor="middle" x="421.564" y="-386.8" font-family="Times,serif" font-size="14.00">oauth_applications</text>
</g>
<!-- Relationship -->
<g id="node5" class="node"><title>Relationship</title>
<path fill="none" stroke="black" d="M536.513,-265.5C536.513,-265.5 654.862,-265.5 654.862,-265.5 660.862,-265.5 666.862,-271.5 666.862,-277.5 666.862,-277.5 666.862,-353.5 666.862,-353.5 666.862,-359.5 660.862,-365.5 654.862,-365.5 654.862,-365.5 536.513,-365.5 536.513,-365.5 530.513,-365.5 524.513,-359.5 524.513,-353.5 524.513,-353.5 524.513,-277.5 524.513,-277.5 524.513,-271.5 530.513,-265.5 536.513,-265.5"/>
<text text-anchor="middle" x="595.688" y="-350.3" font-family="Times,serif" font-size="14.00">Relationship</text>
<polyline fill="none" stroke="black" points="524.513,-343.5 666.862,-343.5 "/>
<text text-anchor="start" x="532.513" y="-328.3" font-family="Times,serif" font-size="14.00">id :INTEGER</text>
<text text-anchor="start" x="532.513" y="-314.3" font-family="Times,serif" font-size="14.00">user_id :integer</text>
<text text-anchor="start" x="532.513" y="-300.3" font-family="Times,serif" font-size="14.00">application_id :integer</text>
<text text-anchor="start" x="532.513" y="-286.3" font-family="Times,serif" font-size="14.00">created_at :datetime</text>
<text text-anchor="start" x="532.513" y="-272.3" font-family="Times,serif" font-size="14.00">updated_at :datetime</text>
</g>
<!-- Resource -->
<g id="node6" class="node"><title>Resource</title>
<path fill="none" stroke="black" d="M697.182,-265.5C697.182,-265.5 806.193,-265.5 806.193,-265.5 812.193,-265.5 818.193,-271.5 818.193,-277.5 818.193,-277.5 818.193,-353.5 818.193,-353.5 818.193,-359.5 812.193,-365.5 806.193,-365.5 806.193,-365.5 697.182,-365.5 697.182,-365.5 691.182,-365.5 685.182,-359.5 685.182,-353.5 685.182,-353.5 685.182,-277.5 685.182,-277.5 685.182,-271.5 691.182,-265.5 697.182,-265.5"/>
<text text-anchor="middle" x="751.688" y="-350.3" font-family="Times,serif" font-size="14.00">Resource</text>
<polyline fill="none" stroke="black" points="685.182,-343.5 818.193,-343.5 "/>
<text text-anchor="start" x="693.182" y="-328.3" font-family="Times,serif" font-size="14.00">id :INTEGER</text>
<text text-anchor="start" x="693.182" y="-314.3" font-family="Times,serif" font-size="14.00">user_id :integer</text>
<text text-anchor="start" x="693.182" y="-300.3" font-family="Times,serif" font-size="14.00">name :varchar</text>
<text text-anchor="start" x="693.182" y="-286.3" font-family="Times,serif" font-size="14.00">created_at :datetime</text>
<text text-anchor="start" x="693.182" y="-272.3" font-family="Times,serif" font-size="14.00">updated_at :datetime</text>
</g>
<!-- Resource&#45;&gt;Access -->
<g id="edge4" class="edge"><title>Resource&#45;&gt;Access</title>
<path fill="none" stroke="#98f358" d="M751.688,-256.781C751.688,-246.42 751.688,-235.497 751.688,-224.767"/>
<ellipse fill="none" stroke="#98f358" cx="751.688" cy="-261.152" rx="4" ry="4"/>
<polygon fill="#98f358" stroke="#98f358" points="751.688,-224.562 756.188,-214.562 751.688,-219.562 751.688,-214.562 751.688,-214.562 751.688,-214.562 751.688,-219.562 747.188,-214.562 751.688,-224.562 751.688,-224.562"/>
</g>
<!-- User -->
<g id="node7" class="node"><title>User</title>
<path fill="none" stroke="black" d="M571.417,-416.5C571.417,-416.5 709.959,-416.5 709.959,-416.5 715.959,-416.5 721.959,-422.5 721.959,-428.5 721.959,-428.5 721.959,-658.5 721.959,-658.5 721.959,-664.5 715.959,-670.5 709.959,-670.5 709.959,-670.5 571.417,-670.5 571.417,-670.5 565.417,-670.5 559.417,-664.5 559.417,-658.5 559.417,-658.5 559.417,-428.5 559.417,-428.5 559.417,-422.5 565.417,-416.5 571.417,-416.5"/>
<text text-anchor="middle" x="640.688" y="-655.3" font-family="Times,serif" font-size="14.00">User</text>
<polyline fill="none" stroke="black" points="559.417,-648.5 721.959,-648.5 "/>
<text text-anchor="start" x="567.417" y="-633.3" font-family="Times,serif" font-size="14.00">id :INTEGER</text>
<text text-anchor="start" x="567.417" y="-619.3" font-family="Times,serif" font-size="14.00">name :varchar</text>
<text text-anchor="start" x="567.417" y="-605.3" font-family="Times,serif" font-size="14.00">email :varchar</text>
<text text-anchor="start" x="567.417" y="-591.3" font-family="Times,serif" font-size="14.00">number :varchar</text>
<text text-anchor="start" x="567.417" y="-577.3" font-family="Times,serif" font-size="14.00">role :varchar</text>
<text text-anchor="start" x="567.417" y="-563.3" font-family="Times,serif" font-size="14.00">department :varchar</text>
<text text-anchor="start" x="567.417" y="-549.3" font-family="Times,serif" font-size="14.00">password_digest :varchar</text>
<text text-anchor="start" x="567.417" y="-535.3" font-family="Times,serif" font-size="14.00">remember_digest :varchar</text>
<text text-anchor="start" x="567.417" y="-521.3" font-family="Times,serif" font-size="14.00">activation_digest :varchar</text>
<text text-anchor="start" x="567.417" y="-507.3" font-family="Times,serif" font-size="14.00">activated :boolean</text>
<text text-anchor="start" x="567.417" y="-493.3" font-family="Times,serif" font-size="14.00">activated_at :datetime</text>
<text text-anchor="start" x="567.417" y="-479.3" font-family="Times,serif" font-size="14.00">reset_digest :varchar</text>
<text text-anchor="start" x="567.417" y="-465.3" font-family="Times,serif" font-size="14.00">reset_sent_at :varchar</text>
<text text-anchor="start" x="567.417" y="-451.3" font-family="Times,serif" font-size="14.00">created_at :datetime</text>
<text text-anchor="start" x="567.417" y="-437.3" font-family="Times,serif" font-size="14.00">updated_at :datetime</text>
<text text-anchor="start" x="567.417" y="-423.3" font-family="Times,serif" font-size="14.00">icon :varchar</text>
</g>
<!-- User&#45;&gt;Relationship -->
<g id="edge5" class="edge"><title>User&#45;&gt;Relationship</title>
<path fill="none" stroke="#b5e1e5" d="M613.968,-408.306C611.701,-396.924 609.494,-385.839 607.443,-375.537"/>
<ellipse fill="none" stroke="#b5e1e5" cx="614.775" cy="-412.362" rx="4.00001" ry="4.00001"/>
<polygon fill="#b5e1e5" stroke="#b5e1e5" points="607.4,-375.32 609.86,-364.634 606.423,-370.416 605.447,-365.513 605.447,-365.513 605.447,-365.513 606.423,-370.416 601.034,-366.391 607.4,-375.32 607.4,-375.32"/>
</g>
<!-- User&#45;&gt;Resource -->
<g id="edge7" class="edge"><title>User&#45;&gt;Resource</title>
<path fill="none" stroke="#4857bc" d="M706.392,-408.724C712.566,-396.153 718.566,-383.936 724.072,-372.727"/>
<ellipse fill="none" stroke="#4857bc" cx="704.442" cy="-412.694" rx="4.00002" ry="4.00002"/>
<ellipse fill="#4857bc" stroke="#4857bc" cx="725.852" cy="-369.103" rx="4.00002" ry="4.00002"/>
</g>
<!-- User&#45;&gt;PaperTrail::Version -->
<g id="edge8" class="edge"><title>User&#45;&gt;PaperTrail::Version</title>
<path fill="none" stroke="#042e1b" d="M728.029,-419.245C729.241,-418.145 730.461,-417.063 731.688,-416 768.054,-384.508 802.735,-407.13 827.688,-366 892.235,-259.604 868.202,-203.665 827.688,-86 821.165,-67.0558 805.4,-51.7054 789.91,-40.5013"/>
<ellipse fill="none" stroke="#042e1b" cx="724.949" cy="-422.149" rx="4.00002" ry="4.00002"/>
<polygon fill="#042e1b" stroke="#042e1b" points="789.661,-40.3317 783.924,-30.9862 785.527,-37.5193 781.392,-34.7068 781.392,-34.7068 781.392,-34.7068 785.527,-37.5193 778.861,-38.4275 789.661,-40.3317 789.661,-40.3317"/>
<text text-anchor="middle" x="890.019" y="-235.8" font-family="Times,serif" font-size="14.00">versions</text>
</g>
<!-- User&#45;&gt;Doorkeeper::Application -->
<g id="edge6" class="edge"><title>User&#45;&gt;Doorkeeper::Application</title>
<path fill="none" stroke="#61e606" d="M551.734,-456.219C508.903,-414.674 460.801,-368.018 432.437,-340.505"/>
<polygon fill="#61e606" stroke="#61e606" points="552.018,-456.494 556.063,-466.686 555.607,-459.975 559.196,-463.456 559.196,-463.456 559.196,-463.456 555.607,-459.975 562.329,-460.226 552.018,-456.494 552.018,-456.494"/>
<polygon fill="#61e606" stroke="#61e606" points="432.159,-340.236 428.114,-330.043 428.57,-336.755 424.981,-333.273 424.981,-333.273 424.981,-333.273 428.57,-336.755 421.847,-336.503 432.159,-340.236 432.159,-340.236"/>
<text text-anchor="middle" x="524.512" y="-386.8" font-family="Times,serif" font-size="14.00">applications</text>
</g>
</g>
</svg>
